<svg xmlns="http://www.w3.org/2000/svg" viewBox="0 0 1920 1080" width="1920" height="1080">
  <defs>
    <radialGradient id="bgGlow" cx="50%" cy="50%" r="65%">
      <stop offset="0%" stop-color="#1e2430" stop-opacity="0.85"/>
      <stop offset="50%" stop-color="#15171e" stop-opacity="0.95"/>
      <stop offset="100%" stop-color="#08080a" stop-opacity="1"/>
    </radialGradient>
    <linearGradient id="meshGrad" x1="0%" y1="0%" x2="100%" y2="100%">
      <stop offset="0%" stop-color="#06b6d4"/>
      <stop offset="100%" stop-color="#ffffff" stop-opacity="0.2"/>
    </linearGradient>
    <radialGradient id="orbGrad" cx="35%" cy="35%" r="65%">
      <stop offset="0%" stop-color="#ffffff" stop-opacity="0.9"/>
      <stop offset="30%" stop-color="#06b6d4" stop-opacity="0.8"/>
      <stop offset="100%" stop-color="#08080a" stop-opacity="0"/>
    </radialGradient>
    <pattern id="grid" width="80" height="80" patternUnits="userSpaceOnUse">
      <path d="M 80 0 L 0 0 0 80" fill="none" stroke="rgba(255,255,255,0.04)" stroke-width="1"/>
    </pattern>
  </defs>

  <!-- Background -->
  <rect width="1920" height="1080" fill="#08080a"/>
  <rect width="1920" height="1080" fill="url(#bgGlow)"/>
  <rect width="1920" height="1080" fill="url(#grid)"/>

  <!-- Graphical Elements -->
  
      <path d="M 300 700 Q 600 350 960 380 T 1620 620" fill="none" stroke="#22d3ee" stroke-width="3" opacity="0.8"/>
      <path d="M 260 720 Q 620 330 1000 360 T 1660 600" fill="none" stroke="#0ea5e9" stroke-width="2" opacity="0.6"/>
      <path d="M 340 680 Q 580 370 920 400 T 1580 640" fill="none" stroke="#38bdf8" stroke-width="1.5" opacity="0.4"/>
      <rect x="740" y="380" width="440" height="240" fill="none" stroke="#06b6d4" stroke-width="1.5" rx="8"/>
      <line x1="740" y1="440" x2="1180" y2="440" stroke="#06b6d4" stroke-width="1" stroke-dasharray="4 4" opacity="0.5"/>
      <circle cx="820" cy="510" r="45" fill="none" stroke="#22d3ee" stroke-width="2"/>
      <circle cx="1100" cy="510" r="45" fill="none" stroke="#22d3ee" stroke-width="2"/>
    

  <!-- Project Title and Details Overlays for Rich Canvas Texture -->
  <g opacity="0.9">
    <rect x="120" y="110" width="160" height="34" rx="17" fill="rgba(255,255,255,0.07)" stroke="rgba(255,255,255,0.15)"/>
    <text x="200" y="132" font-family="'Space Mono', monospace" font-size="12" font-weight="700" fill="#06b6d4" text-anchor="middle" letter-spacing="2">ARCHIVE // 2026</text>
    
    <text x="120" y="930" font-family="'General Sans', sans-serif, system-ui" font-size="68" font-weight="700" fill="#ffffff" letter-spacing="-1">VANGUARD KINETIC</text>
    <text x="120" y="975" font-family="'Space Mono', monospace" font-size="16" fill="rgba(255,255,255,0.65)" letter-spacing="1.5">HYPERCAR TELEMETRY &amp; AERODYNAMIC DESIGN SYSTEM</text>
    
    <text x="1800" y="975" font-family="'Space Mono', monospace" font-size="14" fill="#06b6d4" text-anchor="end" letter-spacing="2">ELECTRIC GT // CAN-BUS HUD // CFD STREAMLINES</text>
  </g>

  <!-- Tech Corner Markers -->
  <path d="M 80 120 L 80 80 L 120 80" fill="none" stroke="rgba(255,255,255,0.3)" stroke-width="2"/>
  <path d="M 1840 120 L 1840 80 L 1800 80" fill="none" stroke="rgba(255,255,255,0.3)" stroke-width="2"/>
  <path d="M 80 960 L 80 1000 L 120 1000" fill="none" stroke="rgba(255,255,255,0.3)" stroke-width="2"/>
  <path d="M 1840 960 L 1840 1000 L 1800 1000" fill="none" stroke="rgba(255,255,255,0.3)" stroke-width="2"/>
</svg>